<svg version="1.1" id="Layer_1" xmlns="http://www.w3.org/2000/svg" xmlns:xlink="http://www.w3.org/1999/xlink" x="0px" y="0px"
	 width="100%" viewBox="0 0 1024 1024" enable-background="new 0 0 1024 1024" xml:space="preserve">
<path fill="#000000" opacity="1.000000" stroke="none" 
	d="
M277.150879,594.149780 
	C259.548920,581.106689 240.611435,570.906006 222.207260,559.870667 
	C200.795212,547.031860 179.129990,534.615234 157.573868,522.016785 
	C150.585403,517.932434 150.511688,517.517456 152.588684,509.734344 
	C167.613037,453.433563 182.602844,397.123566 197.569366,340.807373 
	C199.855637,332.204468 200.070465,331.745605 208.983322,331.729523 
	C256.460510,331.643982 303.937988,331.712006 351.414948,331.574677 
	C355.655548,331.562408 357.712738,334.090393 359.842499,336.843323 
	C372.475342,353.172577 385.064117,369.535980 397.666504,385.888763 
	C405.492645,396.043915 413.200531,406.293427 421.198212,416.311615 
	C424.455383,420.391724 424.515717,423.308289 420.821625,427.439484 
	C395.904785,455.304504 384.160889,487.975739 386.459778,525.400574 
	C386.926208,532.994324 388.260925,540.567078 390.340820,547.930908 
	C391.290771,551.294312 390.271637,553.067932 387.041901,554.372742 
	C353.732697,567.828613 320.469391,581.398193 287.180817,594.905396 
	C283.902863,596.235413 280.533081,597.517761 277.150879,594.149780 
z"/>
<path fill="#000000" opacity="1.000000" stroke="none" 
	d="
M830.087891,349.169525 
	C844.191162,401.993896 858.170288,454.429352 872.151123,506.864380 
	C872.408081,507.827911 872.708923,508.780182 872.950256,509.747406 
	C874.815613,517.224670 874.620911,518.017639 867.979370,521.783142 
	C827.280151,544.857788 787.476379,569.399597 748.231079,594.851746 
	C744.620483,597.193481 741.533691,595.856873 738.335144,594.581909 
	C725.514404,589.471313 712.727234,584.276001 699.942261,579.076050 
	C680.072693,570.994446 660.248718,562.799011 640.325256,554.852722 
	C636.097778,553.166626 635.068115,550.936584 636.070251,546.507812 
	C645.867065,503.210571 636.668579,464.533325 607.740417,430.607758 
	C599.482849,420.923706 599.808838,423.665253 606.925415,414.350739 
	C627.031860,388.034485 647.293640,361.836914 667.478333,335.580383 
	C669.549316,332.886414 672.097412,331.599091 675.602234,331.603943 
	C723.575317,331.670380 771.548523,331.688202 819.521484,331.592163 
	C823.753784,331.583679 826.010864,333.078186 826.875366,337.239960 
	C827.683960,341.132721 828.917480,344.937225 830.087891,349.169525 
z"/>
<path fill="#000000" opacity="1.000000" stroke="none" 
	d="
M522.000122,172.658890 
	C547.992249,172.658951 573.484436,172.656570 598.976562,172.661041 
	C606.836182,172.662430 607.030273,172.627686 609.491821,180.353973 
	C622.153198,220.095200 634.716797,259.867584 647.312378,299.629791 
	C647.814270,301.214264 648.277344,302.811127 648.788025,304.392639 
	C654.702026,322.705505 655.363281,316.590271 643.869324,331.778534 
	C625.191467,356.459900 605.885803,380.665436 587.015076,405.202484 
	C584.566589,408.386200 582.616455,408.260284 579.549927,406.460297 
	C565.966064,398.486908 551.541931,392.950592 535.910889,390.126801 
	C505.699982,384.669159 477.432678,389.652527 450.711273,404.374603 
	C442.327545,408.993622 442.386627,409.051544 436.625244,401.559174 
	C416.936523,375.955200 397.286713,350.320862 377.478333,324.809753 
	C374.467987,320.932800 374.062469,317.096100 375.460144,312.683838 
	C386.704987,277.185211 397.928925,241.679962 409.159882,206.176941 
	C411.966736,197.304047 415.142059,188.525726 417.448120,179.524628 
	C418.857147,174.024918 421.743042,172.549973 427.029907,172.578354 
	C458.519196,172.747467 490.009857,172.660263 522.000122,172.658890 
z"/>
<path fill="#000000" opacity="1.000000" stroke="none" 
	d="
M486.012024,639.780151 
	C490.020111,640.478394 493.600067,641.200256 497.210571,641.702209 
	C500.617249,642.175964 502.428528,643.439209 502.415619,647.409485 
	C502.289276,686.236450 502.313629,725.064026 502.386841,763.891296 
	C502.393860,767.618591 500.677673,770.108643 498.079956,772.430603 
	C467.783142,799.510803 437.485626,826.590515 407.287750,853.780823 
	C403.758209,856.958862 400.669495,856.540710 396.906586,854.488037 
	C371.763092,840.772949 346.561218,827.164917 321.379456,813.519958 
	C297.366180,800.508118 273.409698,787.389587 249.294510,774.569519 
	C244.579147,772.062683 243.836563,768.789490 245.203873,764.334290 
	C250.519531,747.014038 255.827438,729.691162 261.231842,712.398438 
	C270.653046,682.252869 280.190002,652.143372 289.548920,621.978577 
	C290.779419,618.012573 292.802124,615.453857 296.765289,613.853027 
	C327.775665,601.326721 358.718292,588.632751 389.680756,575.987793 
	C398.748871,572.284485 398.834229,572.228760 403.771606,580.517395 
	C420.266541,608.208191 444.177063,626.542358 474.541473,636.732178 
	C478.152863,637.944153 481.908478,638.726318 486.012024,639.780151 
z"/>
<path fill="#000000" opacity="1.000000" stroke="none" 
	d="
M697.555664,601.336060 
	C708.251160,605.643311 718.563110,609.884460 728.969666,613.879272 
	C733.572510,615.646240 735.991943,618.704102 737.445618,623.425903 
	C751.817322,670.107300 766.367126,716.734009 780.903137,763.364746 
	C782.848389,769.605164 782.549561,770.736633 776.524475,774.029602 
	C739.564331,794.229919 702.576904,814.380371 665.608948,834.566528 
	C653.482971,841.187866 641.355896,847.808716 629.298157,854.552795 
	C625.579529,856.632568 622.536926,856.270996 619.374939,853.429077 
	C594.857239,831.394104 570.275024,809.430847 545.722534,787.434509 
	C539.892761,782.211670 534.144348,776.897034 528.271851,771.723083 
	C525.189575,769.007568 523.706482,765.741943 523.718079,761.642334 
	C523.823547,724.491455 523.891174,687.340332 523.969238,650.189331 
	C523.984924,642.734741 524.002991,642.843689 531.368652,641.545898 
	C570.362610,634.675232 600.899353,615.136047 621.685120,581.059265 
	C622.378845,579.921997 623.156616,578.817322 623.698120,577.609131 
	C625.604919,573.355408 628.405151,572.979187 632.542297,574.700500 
	C653.124756,583.264221 673.800293,591.604126 694.442749,600.023804 
	C695.367371,600.400940 696.288086,600.787598 697.555664,601.336060 
z"/>
<path fill="#d21e1e" opacity="1.000000" stroke="none"
	d="
M605.151978,483.080872
	C622.924683,534.068970 595.778320,590.329651 544.659729,608.009705
	C495.381805,625.052979 439.556061,601.877380 420.643555,546.521790
	C402.312683,492.868774 432.414978,438.696289 482.169678,422.145752
	C532.648865,405.354218 585.789307,431.086761 605.151978,483.080872
z"/>
</svg>